<svg viewBox="0 0 32 33" fill="none" xmlns="http://www.w3.org/2000/svg">
<g opacity="0.6">
<path d="M13 12.75C13 13.5456 13.3161 14.3087 13.8787 14.8713C14.4413 15.4339 15.2044 15.75 16 15.75C16.7956 15.75 17.5587 15.4339 18.1213 14.8713C18.6839 14.3087 19 13.5456 19 12.75C19 11.9544 18.6839 11.1913 18.1213 10.6287C17.5587 10.0661 16.7956 9.75 16 9.75C15.2044 9.75 14.4413 10.0661 13.8787 10.6287C13.3161 11.1913 13 11.9544 13 12.75Z" stroke="white" strokeWidth="1.25" strokeLinecap="round" strokeLinejoin="round"/>
<path d="M19 21.75H23.5" stroke="white" strokeWidth="1.25" strokeLinecap="round" strokeLinejoin="round"/>
<path d="M21.25 19.5V24" stroke="white" strokeWidth="1.25" strokeLinecap="round" strokeLinejoin="round"/>
<path d="M11.5 23.25V21.75C11.5 20.9544 11.8161 20.1913 12.3787 19.6287C12.9413 19.0661 13.7044 18.75 14.5 18.75H17.5" stroke="white" strokeWidth="1.25" strokeLinecap="round" strokeLinejoin="round"/>
</g>
<rect x="0.5" y="1" width="31" height="31" rx="15.5" stroke="white" strokeOpacity="0.3" stroke-dasharray="5 5"/>
</svg>
