<svg viewBox="0 0 24 24" fill="none" xmlns="http://www.w3.org/2000/svg">
<path d="M19.9688 5.8125C19.5224 5.8125 16.1884 5.8125 15.75 5.8125V5.10938C15.75 3.94627 14.8037 3 13.6406 3H10.8281C9.66502 3 8.71875 3.94627 8.71875 5.10938V5.8125C8.1913 5.8125 4.96051 5.8125 4.5 5.8125V7.21875H5.90625V18.8906C5.90625 20.0537 6.85252 21 8.01562 21H16.4531C17.6162 21 18.5625 20.0537 18.5625 18.8906V7.21875H19.9688V5.8125ZM10.125 5.10938C10.125 4.72167 10.4404 4.40625 10.8281 4.40625H13.6406C14.0283 4.40625 14.3438 4.72167 14.3438 5.10938V5.8125H10.125V5.10938ZM17.1562 18.8906C17.1562 19.2783 16.8408 19.5938 16.4531 19.5938H8.01562C7.62792 19.5938 7.3125 19.2783 7.3125 18.8906V7.21875H17.1562V18.8906Z" fill="white" fillOpacity="0.6"/>
<path d="M8.71875 9.89062H10.125V18.3281H8.71875V9.89062Z" fill="white" fillOpacity="0.6"/>
<path d="M11.5312 9.89062H12.9375V18.3281H11.5312V9.89062Z" fill="white" fillOpacity="0.6"/>
<path d="M14.3438 9.89062H15.75V18.3281H14.3438V9.89062Z" fill="white" fillOpacity="0.6"/>
</svg>