<svg width="40" height="40" viewBox="0 0 40 40" fill="none" xmlns="http://www.w3.org/2000/svg">
<rect width="40" height="40" rx="4" fill="#BC8B42" fill-opacity="0.05"/>
<mask id="path-2-outside-1_1330_569" maskUnits="userSpaceOnUse" x="10" y="10" width="18" height="20" fill="black">
<rect fill="white" x="10" y="10" width="18" height="20"/>
<path d="M27.327 15.9406V15.9389C27.3209 15.9107 27.3112 15.8834 27.2981 15.8577C27.2947 15.8509 27.2912 15.8444 27.2873 15.8384C27.2731 15.8125 27.2554 15.7886 27.2348 15.7674L22.5662 11.0988C22.5449 11.078 22.5209 11.0602 22.4948 11.0458C22.4884 11.0424 22.4823 11.0389 22.4755 11.0358C22.4296 11.0127 22.379 11.0004 22.3277 11H15.6209C15.1788 11.0005 14.7549 11.1763 14.4423 11.4889C14.1297 11.8015 13.9538 12.2253 13.9532 12.6674V19.1486H11.9645C11.7088 19.1489 11.4636 19.2506 11.2828 19.4315C11.1019 19.6123 11.0003 19.8576 11 20.1133V25.7578C11.0003 26.0135 11.1019 26.2587 11.2828 26.4396C11.4636 26.6204 11.7088 26.7222 11.9645 26.7225H13.9532V27.3324C13.9538 27.7745 14.1296 28.1984 14.4422 28.511C14.7549 28.8236 15.1787 28.9995 15.6209 29H25.6658C26.1079 28.9995 26.5317 28.8236 26.8444 28.511C27.157 28.1984 27.3328 27.7745 27.3334 27.3324V16.0049C27.3333 15.9833 27.3312 15.9618 27.327 15.9406ZM26.1831 15.6682H23.6585C23.3951 15.668 23.1424 15.5632 22.9561 15.3769C22.7698 15.1905 22.665 14.9379 22.6648 14.6744V12.1497L26.1831 15.6682ZM11.6738 25.7578V20.1133C11.6739 20.0362 11.7046 19.9623 11.7591 19.9078C11.8136 19.8533 11.8874 19.8226 11.9645 19.8224H21.7002C21.7773 19.8226 21.8512 19.8533 21.9057 19.9078C21.9602 19.9623 21.9908 20.0362 21.9909 20.1133V25.7578C21.9908 25.8349 21.9602 25.9088 21.9057 25.9633C21.8512 26.0178 21.7773 26.0485 21.7002 26.0487H11.9645C11.8874 26.0485 11.8136 26.0178 11.7591 25.9633C11.7046 25.9088 11.6739 25.8349 11.6738 25.7578ZM25.6658 28.3262H15.6209C15.3574 28.3259 15.1047 28.2211 14.9184 28.0348C14.7321 27.8485 14.6273 27.5959 14.6271 27.3324V26.7225H21.7002C21.956 26.7222 22.2012 26.6204 22.382 26.4396C22.5628 26.2587 22.6645 26.0135 22.6648 25.7578V20.1133C22.6645 19.8576 22.5628 19.6123 22.382 19.4315C22.2012 19.2506 21.956 19.1489 21.7002 19.1486H14.6271V12.6668C14.6274 12.4034 14.7322 12.1508 14.9185 11.9645C15.1048 11.7783 15.3574 11.6735 15.6209 11.6732H21.9909V14.6742C21.9914 15.1164 22.1672 15.5403 22.4799 15.853C22.7925 16.1656 23.2164 16.3415 23.6585 16.342H26.6595V27.3326C26.6592 27.596 26.5544 27.8486 26.3681 28.0348C26.1818 28.2211 25.9292 28.3259 25.6658 28.3262Z"/>
<path d="M14.9925 22.9336C14.9925 22.1212 14.3296 21.5475 13.3957 21.5475H12.4015V24.3242H13.3957C14.3296 24.3242 14.9925 23.7462 14.9925 22.9336ZM13.4727 23.7824H12.9956V22.0883H13.4727C13.5882 22.0813 13.704 22.098 13.8128 22.1374C13.9216 22.1769 14.0213 22.2381 14.1055 22.3175C14.1898 22.3968 14.257 22.4926 14.3029 22.5988C14.3488 22.7051 14.3724 22.8196 14.3724 22.9353C14.3724 23.0511 14.3488 23.1656 14.3029 23.2719C14.257 23.3781 14.1898 23.4739 14.1055 23.5532C14.0213 23.6326 13.9216 23.6938 13.8128 23.7332C13.704 23.7727 13.5882 23.7894 13.4727 23.7824Z"/>
<path d="M16.8607 24.3727C17.1431 24.3652 17.4171 24.2746 17.6484 24.1123C17.8797 23.9499 18.058 23.723 18.161 23.4599C18.264 23.1968 18.2872 22.9091 18.2276 22.6329C18.168 22.3567 18.0284 22.1041 17.8261 21.9068C17.6238 21.7096 17.3678 21.5763 17.0902 21.5237C16.8126 21.471 16.5256 21.5014 16.2651 21.611C16.0047 21.7206 15.7823 21.9045 15.6258 22.1398C15.4693 22.3751 15.3856 22.6513 15.3852 22.9338C15.3943 23.3189 15.5538 23.6852 15.8295 23.9541C16.1053 24.2231 16.4755 24.3733 16.8607 24.3727ZM16.8607 22.0405C17.0393 22.0335 17.216 22.0802 17.3679 22.1744C17.5199 22.2686 17.6401 22.4061 17.7133 22.5693C17.7864 22.7324 17.8091 22.9137 17.7784 23.0898C17.7476 23.266 17.6649 23.4289 17.5408 23.5576C17.4168 23.6863 17.257 23.775 17.0821 23.8122C16.9073 23.8494 16.7253 23.8334 16.5595 23.7664C16.3938 23.6993 16.2519 23.5842 16.1522 23.4358C16.0524 23.2874 15.9993 23.1126 15.9997 22.9338C15.9997 22.7025 16.0894 22.4802 16.25 22.3136C16.4106 22.1471 16.6295 22.049 16.8607 22.0405Z"/>
<path d="M20.1838 24.3728C20.3856 24.3719 20.5853 24.3303 20.7708 24.2505C20.9562 24.1707 21.1237 24.0544 21.2632 23.9084L20.8306 23.5205C20.7514 23.6157 20.6526 23.6927 20.541 23.7464C20.4294 23.8 20.3076 23.8291 20.1838 23.8316C19.9528 23.822 19.7344 23.7235 19.5743 23.5567C19.4143 23.3899 19.3249 23.1676 19.3249 22.9364C19.3249 22.7052 19.4143 22.483 19.5743 22.3161C19.7344 22.1493 19.9528 22.0508 20.1838 22.0412C20.3075 22.0438 20.4293 22.0729 20.5409 22.1266C20.6525 22.1803 20.7513 22.2572 20.8306 22.3523L21.2632 21.964C21.103 21.7793 20.8987 21.6379 20.6694 21.5529C20.4401 21.4679 20.193 21.4421 19.9511 21.4779C19.7092 21.5136 19.4801 21.6097 19.2852 21.7573C19.0902 21.905 18.9356 22.0993 18.8355 22.3225C18.7355 22.5457 18.6934 22.7905 18.713 23.0343C18.7326 23.278 18.8133 23.5129 18.9476 23.7173C19.082 23.9216 19.2657 24.0888 19.4817 24.2034C19.6978 24.318 19.9392 24.3762 20.1838 24.3728Z"/>
</mask>
<path d="M27.327 15.9406V15.9389C27.3209 15.9107 27.3112 15.8834 27.2981 15.8577C27.2947 15.8509 27.2912 15.8444 27.2873 15.8384C27.2731 15.8125 27.2554 15.7886 27.2348 15.7674L22.5662 11.0988C22.5449 11.078 22.5209 11.0602 22.4948 11.0458C22.4884 11.0424 22.4823 11.0389 22.4755 11.0358C22.4296 11.0127 22.379 11.0004 22.3277 11H15.6209C15.1788 11.0005 14.7549 11.1763 14.4423 11.4889C14.1297 11.8015 13.9538 12.2253 13.9532 12.6674V19.1486H11.9645C11.7088 19.1489 11.4636 19.2506 11.2828 19.4315C11.1019 19.6123 11.0003 19.8576 11 20.1133V25.7578C11.0003 26.0135 11.1019 26.2587 11.2828 26.4396C11.4636 26.6204 11.7088 26.7222 11.9645 26.7225H13.9532V27.3324C13.9538 27.7745 14.1296 28.1984 14.4422 28.511C14.7549 28.8236 15.1787 28.9995 15.6209 29H25.6658C26.1079 28.9995 26.5317 28.8236 26.8444 28.511C27.157 28.1984 27.3328 27.7745 27.3334 27.3324V16.0049C27.3333 15.9833 27.3312 15.9618 27.327 15.9406ZM26.1831 15.6682H23.6585C23.3951 15.668 23.1424 15.5632 22.9561 15.3769C22.7698 15.1905 22.665 14.9379 22.6648 14.6744V12.1497L26.1831 15.6682ZM11.6738 25.7578V20.1133C11.6739 20.0362 11.7046 19.9623 11.7591 19.9078C11.8136 19.8533 11.8874 19.8226 11.9645 19.8224H21.7002C21.7773 19.8226 21.8512 19.8533 21.9057 19.9078C21.9602 19.9623 21.9908 20.0362 21.9909 20.1133V25.7578C21.9908 25.8349 21.9602 25.9088 21.9057 25.9633C21.8512 26.0178 21.7773 26.0485 21.7002 26.0487H11.9645C11.8874 26.0485 11.8136 26.0178 11.7591 25.9633C11.7046 25.9088 11.6739 25.8349 11.6738 25.7578ZM25.6658 28.3262H15.6209C15.3574 28.3259 15.1047 28.2211 14.9184 28.0348C14.7321 27.8485 14.6273 27.5959 14.6271 27.3324V26.7225H21.7002C21.956 26.7222 22.2012 26.6204 22.382 26.4396C22.5628 26.2587 22.6645 26.0135 22.6648 25.7578V20.1133C22.6645 19.8576 22.5628 19.6123 22.382 19.4315C22.2012 19.2506 21.956 19.1489 21.7002 19.1486H14.6271V12.6668C14.6274 12.4034 14.7322 12.1508 14.9185 11.9645C15.1048 11.7783 15.3574 11.6735 15.6209 11.6732H21.9909V14.6742C21.9914 15.1164 22.1672 15.5403 22.4799 15.853C22.7925 16.1656 23.2164 16.3415 23.6585 16.342H26.6595V27.3326C26.6592 27.596 26.5544 27.8486 26.3681 28.0348C26.1818 28.2211 25.9292 28.3259 25.6658 28.3262Z" fill="#BC8B42"/>
<path d="M14.9925 22.9336C14.9925 22.1212 14.3296 21.5475 13.3957 21.5475H12.4015V24.3242H13.3957C14.3296 24.3242 14.9925 23.7462 14.9925 22.9336ZM13.4727 23.7824H12.9956V22.0883H13.4727C13.5882 22.0813 13.704 22.098 13.8128 22.1374C13.9216 22.1769 14.0213 22.2381 14.1055 22.3175C14.1898 22.3968 14.257 22.4926 14.3029 22.5988C14.3488 22.7051 14.3724 22.8196 14.3724 22.9353C14.3724 23.0511 14.3488 23.1656 14.3029 23.2719C14.257 23.3781 14.1898 23.4739 14.1055 23.5532C14.0213 23.6326 13.9216 23.6938 13.8128 23.7332C13.704 23.7727 13.5882 23.7894 13.4727 23.7824Z" fill="#BC8B42"/>
<path d="M16.8607 24.3727C17.1431 24.3652 17.4171 24.2746 17.6484 24.1123C17.8797 23.9499 18.058 23.723 18.161 23.4599C18.264 23.1968 18.2872 22.9091 18.2276 22.6329C18.168 22.3567 18.0284 22.1041 17.8261 21.9068C17.6238 21.7096 17.3678 21.5763 17.0902 21.5237C16.8126 21.471 16.5256 21.5014 16.2651 21.611C16.0047 21.7206 15.7823 21.9045 15.6258 22.1398C15.4693 22.3751 15.3856 22.6513 15.3852 22.9338C15.3943 23.3189 15.5538 23.6852 15.8295 23.9541C16.1053 24.2231 16.4755 24.3733 16.8607 24.3727ZM16.8607 22.0405C17.0393 22.0335 17.216 22.0802 17.3679 22.1744C17.5199 22.2686 17.6401 22.4061 17.7133 22.5693C17.7864 22.7324 17.8091 22.9137 17.7784 23.0898C17.7476 23.266 17.6649 23.4289 17.5408 23.5576C17.4168 23.6863 17.257 23.775 17.0821 23.8122C16.9073 23.8494 16.7253 23.8334 16.5595 23.7664C16.3938 23.6993 16.2519 23.5842 16.1522 23.4358C16.0524 23.2874 15.9993 23.1126 15.9997 22.9338C15.9997 22.7025 16.0894 22.4802 16.25 22.3136C16.4106 22.1471 16.6295 22.049 16.8607 22.0405Z" fill="#BC8B42"/>
<path d="M20.1838 24.3728C20.3856 24.3719 20.5853 24.3303 20.7708 24.2505C20.9562 24.1707 21.1237 24.0544 21.2632 23.9084L20.8306 23.5205C20.7514 23.6157 20.6526 23.6927 20.541 23.7464C20.4294 23.8 20.3076 23.8291 20.1838 23.8316C19.9528 23.822 19.7344 23.7235 19.5743 23.5567C19.4143 23.3899 19.3249 23.1676 19.3249 22.9364C19.3249 22.7052 19.4143 22.483 19.5743 22.3161C19.7344 22.1493 19.9528 22.0508 20.1838 22.0412C20.3075 22.0438 20.4293 22.0729 20.5409 22.1266C20.6525 22.1803 20.7513 22.2572 20.8306 22.3523L21.2632 21.964C21.103 21.7793 20.8987 21.6379 20.6694 21.5529C20.4401 21.4679 20.193 21.4421 19.9511 21.4779C19.7092 21.5136 19.4801 21.6097 19.2852 21.7573C19.0902 21.905 18.9356 22.0993 18.8355 22.3225C18.7355 22.5457 18.6934 22.7905 18.713 23.0343C18.7326 23.278 18.8133 23.5129 18.9476 23.7173C19.082 23.9216 19.2657 24.0888 19.4817 24.2034C19.6978 24.318 19.9392 24.3762 20.1838 24.3728Z" fill="#BC8B42"/>
<path d="M27.327 15.9406V15.9389C27.3209 15.9107 27.3112 15.8834 27.2981 15.8577C27.2947 15.8509 27.2912 15.8444 27.2873 15.8384C27.2731 15.8125 27.2554 15.7886 27.2348 15.7674L22.5662 11.0988C22.5449 11.078 22.5209 11.0602 22.4948 11.0458C22.4884 11.0424 22.4823 11.0389 22.4755 11.0358C22.4296 11.0127 22.379 11.0004 22.3277 11H15.6209C15.1788 11.0005 14.7549 11.1763 14.4423 11.4889C14.1297 11.8015 13.9538 12.2253 13.9532 12.6674V19.1486H11.9645C11.7088 19.1489 11.4636 19.2506 11.2828 19.4315C11.1019 19.6123 11.0003 19.8576 11 20.1133V25.7578C11.0003 26.0135 11.1019 26.2587 11.2828 26.4396C11.4636 26.6204 11.7088 26.7222 11.9645 26.7225H13.9532V27.3324C13.9538 27.7745 14.1296 28.1984 14.4422 28.511C14.7549 28.8236 15.1787 28.9995 15.6209 29H25.6658C26.1079 28.9995 26.5317 28.8236 26.8444 28.511C27.157 28.1984 27.3328 27.7745 27.3334 27.3324V16.0049C27.3333 15.9833 27.3312 15.9618 27.327 15.9406ZM26.1831 15.6682H23.6585C23.3951 15.668 23.1424 15.5632 22.9561 15.3769C22.7698 15.1905 22.665 14.9379 22.6648 14.6744V12.1497L26.1831 15.6682ZM11.6738 25.7578V20.1133C11.6739 20.0362 11.7046 19.9623 11.7591 19.9078C11.8136 19.8533 11.8874 19.8226 11.9645 19.8224H21.7002C21.7773 19.8226 21.8512 19.8533 21.9057 19.9078C21.9602 19.9623 21.9908 20.0362 21.9909 20.1133V25.7578C21.9908 25.8349 21.9602 25.9088 21.9057 25.9633C21.8512 26.0178 21.7773 26.0485 21.7002 26.0487H11.9645C11.8874 26.0485 11.8136 26.0178 11.7591 25.9633C11.7046 25.9088 11.6739 25.8349 11.6738 25.7578ZM25.6658 28.3262H15.6209C15.3574 28.3259 15.1047 28.2211 14.9184 28.0348C14.7321 27.8485 14.6273 27.5959 14.6271 27.3324V26.7225H21.7002C21.956 26.7222 22.2012 26.6204 22.382 26.4396C22.5628 26.2587 22.6645 26.0135 22.6648 25.7578V20.1133C22.6645 19.8576 22.5628 19.6123 22.382 19.4315C22.2012 19.2506 21.956 19.1489 21.7002 19.1486H14.6271V12.6668C14.6274 12.4034 14.7322 12.1508 14.9185 11.9645C15.1048 11.7783 15.3574 11.6735 15.6209 11.6732H21.9909V14.6742C21.9914 15.1164 22.1672 15.5403 22.4799 15.853C22.7925 16.1656 23.2164 16.3415 23.6585 16.342H26.6595V27.3326C26.6592 27.596 26.5544 27.8486 26.3681 28.0348C26.1818 28.2211 25.9292 28.3259 25.6658 28.3262Z" stroke="#BC8B42" stroke-width="0.201153" mask="url(#path-2-outside-1_1330_569)"/>
<path d="M14.9925 22.9336C14.9925 22.1212 14.3296 21.5475 13.3957 21.5475H12.4015V24.3242H13.3957C14.3296 24.3242 14.9925 23.7462 14.9925 22.9336ZM13.4727 23.7824H12.9956V22.0883H13.4727C13.5882 22.0813 13.704 22.098 13.8128 22.1374C13.9216 22.1769 14.0213 22.2381 14.1055 22.3175C14.1898 22.3968 14.257 22.4926 14.3029 22.5988C14.3488 22.7051 14.3724 22.8196 14.3724 22.9353C14.3724 23.0511 14.3488 23.1656 14.3029 23.2719C14.257 23.3781 14.1898 23.4739 14.1055 23.5532C14.0213 23.6326 13.9216 23.6938 13.8128 23.7332C13.704 23.7727 13.5882 23.7894 13.4727 23.7824Z" stroke="#BC8B42" stroke-width="0.201153" mask="url(#path-2-outside-1_1330_569)"/>
<path d="M16.8607 24.3727C17.1431 24.3652 17.4171 24.2746 17.6484 24.1123C17.8797 23.9499 18.058 23.723 18.161 23.4599C18.264 23.1968 18.2872 22.9091 18.2276 22.6329C18.168 22.3567 18.0284 22.1041 17.8261 21.9068C17.6238 21.7096 17.3678 21.5763 17.0902 21.5237C16.8126 21.471 16.5256 21.5014 16.2651 21.611C16.0047 21.7206 15.7823 21.9045 15.6258 22.1398C15.4693 22.3751 15.3856 22.6513 15.3852 22.9338C15.3943 23.3189 15.5538 23.6852 15.8295 23.9541C16.1053 24.2231 16.4755 24.3733 16.8607 24.3727ZM16.8607 22.0405C17.0393 22.0335 17.216 22.0802 17.3679 22.1744C17.5199 22.2686 17.6401 22.4061 17.7133 22.5693C17.7864 22.7324 17.8091 22.9137 17.7784 23.0898C17.7476 23.266 17.6649 23.4289 17.5408 23.5576C17.4168 23.6863 17.257 23.775 17.0821 23.8122C16.9073 23.8494 16.7253 23.8334 16.5595 23.7664C16.3938 23.6993 16.2519 23.5842 16.1522 23.4358C16.0524 23.2874 15.9993 23.1126 15.9997 22.9338C15.9997 22.7025 16.0894 22.4802 16.25 22.3136C16.4106 22.1471 16.6295 22.049 16.8607 22.0405Z" stroke="#BC8B42" stroke-width="0.201153" mask="url(#path-2-outside-1_1330_569)"/>
<path d="M20.1838 24.3728C20.3856 24.3719 20.5853 24.3303 20.7708 24.2505C20.9562 24.1707 21.1237 24.0544 21.2632 23.9084L20.8306 23.5205C20.7514 23.6157 20.6526 23.6927 20.541 23.7464C20.4294 23.8 20.3076 23.8291 20.1838 23.8316C19.9528 23.822 19.7344 23.7235 19.5743 23.5567C19.4143 23.3899 19.3249 23.1676 19.3249 22.9364C19.3249 22.7052 19.4143 22.483 19.5743 22.3161C19.7344 22.1493 19.9528 22.0508 20.1838 22.0412C20.3075 22.0438 20.4293 22.0729 20.5409 22.1266C20.6525 22.1803 20.7513 22.2572 20.8306 22.3523L21.2632 21.964C21.103 21.7793 20.8987 21.6379 20.6694 21.5529C20.4401 21.4679 20.193 21.4421 19.9511 21.4779C19.7092 21.5136 19.4801 21.6097 19.2852 21.7573C19.0902 21.905 18.9356 22.0993 18.8355 22.3225C18.7355 22.5457 18.6934 22.7905 18.713 23.0343C18.7326 23.278 18.8133 23.5129 18.9476 23.7173C19.082 23.9216 19.2657 24.0888 19.4817 24.2034C19.6978 24.318 19.9392 24.3762 20.1838 24.3728Z" stroke="#BC8B42" stroke-width="0.201153" mask="url(#path-2-outside-1_1330_569)"/>
</svg>
