<svg viewBox="0 0 24 24" fill="none" xmlns="http://www.w3.org/2000/svg">
<path d="M8.99902 7.00023H5.99902C5.46859 7.00023 4.95988 7.21094 4.58481 7.58601C4.20974 7.96109 3.99902 8.46979 3.99902 9.00023V18.0002C3.99902 18.5307 4.20974 19.0394 4.58481 19.4144C4.95988 19.7895 5.46859 20.0002 5.99902 20.0002H14.999C15.5295 20.0002 16.0382 19.7895 16.4132 19.4144C16.7883 19.0394 16.999 18.5307 16.999 18.0002V15.0002M15.999 5.00023L18.999 8.00023M8.99902 15.0002H11.999L20.499 6.50023C20.8968 6.1024 21.1203 5.56284 21.1203 5.00023C21.1203 4.43762 20.8968 3.89805 20.499 3.50023C20.1012 3.1024 19.5616 2.87891 18.999 2.87891C18.4364 2.87891 17.8968 3.1024 17.499 3.50023L8.99902 12.0002V15.0002Z" stroke="white" strokeOpacity="0.6" strokeWidth="1.5" strokeLinecap="round" strokeLinejoin="round"/>
</svg>
