<svg viewBox="0 0 20 20" fill="none" xmlns="http://www.w3.org/2000/svg">
<g clip-path="url(#clip0_604_2458)">
<path d="M10.833 9.99967C10.833 9.53944 10.4599 9.16634 9.99967 9.16634C9.53944 9.16634 9.16634 9.53944 9.16634 9.99967C9.16634 10.4599 9.53944 10.833 9.99967 10.833C10.4599 10.833 10.833 10.4599 10.833 9.99967Z" stroke="white" strokeOpacity="0.6" strokeWidth="1.25" strokeLinecap="round" strokeLinejoin="round"/>
<path d="M16.6663 9.99967C16.6663 9.53944 16.2932 9.16634 15.833 9.16634C15.3728 9.16634 14.9997 9.53944 14.9997 9.99967C14.9997 10.4599 15.3728 10.833 15.833 10.833C16.2932 10.833 16.6663 10.4599 16.6663 9.99967Z" stroke="white" strokeOpacity="0.6" strokeWidth="1.25" strokeLinecap="round" strokeLinejoin="round"/>
<path d="M4.99967 9.99967C4.99967 9.53944 4.62658 9.16634 4.16634 9.16634C3.7061 9.16634 3.33301 9.53944 3.33301 9.99967C3.33301 10.4599 3.7061 10.833 4.16634 10.833C4.62658 10.833 4.99967 10.4599 4.99967 9.99967Z" stroke="white" strokeOpacity="0.6" strokeWidth="1.25" strokeLinecap="round" strokeLinejoin="round"/>
</g>
<defs>
<clipPath id="clip0_604_2458">
<rect width="20" height="20" fill="white"/>
</clipPath>
</defs>
</svg>
