<svg width="40" height="40" viewBox="0 0 40 40" fill="none" xmlns="http://www.w3.org/2000/svg">
<rect width="40" height="40" rx="4" fill="#58CAC3" fill-opacity="0.05"/>
<path d="M18.0004 22.0004C18.3263 22.333 18.7153 22.5972 19.1445 22.7776C19.5738 22.958 20.0348 23.0509 20.5004 23.0509C20.966 23.0509 21.427 22.958 21.8563 22.7776C22.2856 22.5972 22.6745 22.333 23.0004 22.0004L27.0004 18.0004C27.6634 17.3373 28.0359 16.4381 28.0359 15.5004C28.0359 14.5627 27.6634 13.6634 27.0004 13.0004C26.3374 12.3373 25.4381 11.9648 24.5004 11.9648C23.5627 11.9648 22.6634 12.3373 22.0004 13.0004L21.5004 13.5004M22.0004 18.0005C21.6745 17.6679 21.2855 17.4037 20.8563 17.2233C20.427 17.0429 19.966 16.95 19.5004 16.95C19.0347 16.95 18.5738 17.0429 18.1445 17.2233C17.7152 17.4037 17.3263 17.6679 17.0004 18.0005L13.0004 22.0005C12.3373 22.6636 11.9648 23.5628 11.9648 24.5005C11.9648 25.4382 12.3373 26.3375 13.0004 27.0005C13.6634 27.6636 14.5627 28.036 15.5004 28.036C16.4381 28.036 17.3373 27.6636 18.0004 27.0005L18.5004 26.5005" stroke="#58CAC3" stroke-linecap="round" stroke-linejoin="round"/>
</svg>
