<svg viewBox="0 0 20 20" fill="none" xmlns="http://www.w3.org/2000/svg">
<path d="M4.16699 8.33366C4.16699 9.88075 4.78157 11.3645 5.87554 12.4584C6.9695 13.5524 8.45323 14.167 10.0003 14.167M10.0003 14.167C11.5474 14.167 13.0312 13.5524 14.1251 12.4584C15.2191 11.3645 15.8337 9.88075 15.8337 8.33366M10.0003 14.167V17.5003M6.66699 17.5003H13.3337M10.0003 1.66699C11.381 1.66699 12.5003 2.78628 12.5003 4.16699V8.33366C12.5003 9.71437 11.381 10.8337 10.0003 10.8337C8.61961 10.8337 7.50033 9.71437 7.50033 8.33366V4.16699C7.50033 2.78628 8.61961 1.66699 10.0003 1.66699Z" stroke="white" strokeOpacity="0.8" strokeWidth="1.25" strokeLinecap="round" strokeLinejoin="round"/>
</svg>
