<svg width="40" height="40" viewBox="0 0 40 40" fill="none" xmlns="http://www.w3.org/2000/svg">
<g clip-path="url(#clip0_82_37431)">
<path opacity="0.1" d="M36 0H4C1.79086 0 0 1.79086 0 4V36C0 38.2091 1.79086 40 4 40H36C38.2091 40 40 38.2091 40 36V4C40 1.79086 38.2091 0 36 0Z" fill="#0C8CE9"/>
<path d="M27.327 15.9406V15.9389C27.3209 15.9107 27.3112 15.8834 27.2981 15.8577C27.2947 15.8509 27.2912 15.8444 27.2873 15.8384C27.2731 15.8125 27.2554 15.7886 27.2348 15.7674L22.5662 11.0988C22.5449 11.078 22.5209 11.0602 22.4948 11.0458C22.4884 11.0424 22.4823 11.0389 22.4755 11.0358C22.4296 11.0127 22.379 11.0004 22.3277 11H15.6209C15.1788 11.0005 14.7549 11.1763 14.4423 11.4889C14.1297 11.8015 13.9538 12.2253 13.9532 12.6674V19.1486H11.9645C11.7088 19.1489 11.4636 19.2506 11.2828 19.4315C11.1019 19.6123 11.0003 19.8576 11 20.1133V25.7578C11.0003 26.0135 11.1019 26.2587 11.2828 26.4396C11.4636 26.6204 11.7088 26.7222 11.9645 26.7225H13.9532V27.3324C13.9538 27.7745 14.1296 28.1984 14.4422 28.511C14.7549 28.8236 15.1787 28.9995 15.6209 29H25.6658C26.1079 28.9995 26.5317 28.8236 26.8444 28.511C27.157 28.1984 27.3328 27.7745 27.3334 27.3324V16.0049C27.3333 15.9833 27.3312 15.9618 27.327 15.9406ZM26.1831 15.6682H23.6585C23.3951 15.668 23.1424 15.5632 22.9561 15.3769C22.7698 15.1905 22.665 14.9379 22.6648 14.6744V12.1497L26.1831 15.6682ZM11.6738 25.7578V20.1133C11.6739 20.0362 11.7046 19.9623 11.7591 19.9078C11.8136 19.8533 11.8874 19.8226 11.9645 19.8224H21.7002C21.7773 19.8226 21.8512 19.8533 21.9057 19.9078C21.9602 19.9623 21.9908 20.0362 21.9909 20.1133V25.7578C21.9908 25.8349 21.9602 25.9088 21.9057 25.9633C21.8512 26.0178 21.7773 26.0485 21.7002 26.0487H11.9645C11.8874 26.0485 11.8136 26.0178 11.7591 25.9633C11.7046 25.9088 11.6739 25.8349 11.6738 25.7578ZM25.6658 28.3262H15.6209C15.3574 28.3259 15.1047 28.2211 14.9184 28.0348C14.7321 27.8485 14.6273 27.5959 14.6271 27.3324V26.7225H21.7002C21.956 26.7222 22.2012 26.6204 22.382 26.4396C22.5628 26.2587 22.6645 26.0135 22.6648 25.7578V20.1133C22.6645 19.8576 22.5628 19.6123 22.382 19.4315C22.2012 19.2506 21.956 19.1489 21.7002 19.1486H14.6271V12.6668C14.6274 12.4034 14.7322 12.1508 14.9185 11.9645C15.1048 11.7783 15.3574 11.6735 15.6209 11.6732H21.9909V14.6742C21.9914 15.1164 22.1672 15.5403 22.4799 15.853C22.7925 16.1656 23.2164 16.3415 23.6585 16.342H26.6595V27.3326C26.6592 27.596 26.5544 27.8486 26.3681 28.0348C26.1818 28.2211 25.9292 28.3259 25.6658 28.3262Z" fill="#0C8CE9"/>
<mask id="mask0_82_37431" style="mask-type:luminance" maskUnits="userSpaceOnUse" x="9" y="9" width="20" height="22">
<path d="M28 10H10V30H28V10Z" fill="#0C8CE9" stroke="#BC8B42" strokeWidth="0.201153"/>
<path d="M27.327 15.9406V15.9389C27.3209 15.9107 27.3112 15.8834 27.2981 15.8577C27.2947 15.8509 27.2912 15.8444 27.2873 15.8384C27.2731 15.8125 27.2554 15.7886 27.2348 15.7674L22.5662 11.0988C22.5449 11.078 22.5209 11.0602 22.4948 11.0458C22.4884 11.0424 22.4823 11.0389 22.4755 11.0358C22.4296 11.0127 22.379 11.0004 22.3277 11H15.6209C15.1788 11.0005 14.7549 11.1763 14.4423 11.4889C14.1297 11.8015 13.9538 12.2253 13.9532 12.6674V19.1486H11.9645C11.7088 19.1489 11.4636 19.2506 11.2828 19.4315C11.1019 19.6123 11.0003 19.8576 11 20.1133V25.7578C11.0003 26.0135 11.1019 26.2587 11.2828 26.4396C11.4636 26.6204 11.7088 26.7222 11.9645 26.7225H13.9532V27.3324C13.9538 27.7745 14.1296 28.1984 14.4422 28.511C14.7549 28.8236 15.1787 28.9995 15.6209 29H25.6658C26.1079 28.9995 26.5317 28.8236 26.8444 28.511C27.157 28.1984 27.3328 27.7745 27.3334 27.3324V16.0049C27.3333 15.9833 27.3312 15.9618 27.327 15.9406ZM26.1831 15.6682H23.6585C23.3951 15.668 23.1424 15.5632 22.9561 15.3769C22.7698 15.1905 22.665 14.9379 22.6648 14.6744V12.1497L26.1831 15.6682ZM11.6738 25.7578V20.1133C11.6739 20.0362 11.7046 19.9623 11.7591 19.9078C11.8136 19.8533 11.8874 19.8226 11.9645 19.8224H21.7002C21.7773 19.8226 21.8512 19.8533 21.9057 19.9078C21.9602 19.9623 21.9908 20.0362 21.9909 20.1133V25.7578C21.9908 25.8349 21.9602 25.9088 21.9057 25.9633C21.8512 26.0178 21.7773 26.0485 21.7002 26.0487H11.9645C11.8874 26.0485 11.8136 26.0178 11.7591 25.9633C11.7046 25.9088 11.6739 25.8349 11.6738 25.7578ZM25.6658 28.3262H15.6209C15.3574 28.3259 15.1047 28.2211 14.9184 28.0348C14.7321 27.8485 14.6273 27.5959 14.6271 27.3324V26.7225H21.7002C21.956 26.7222 22.2012 26.6204 22.382 26.4396C22.5628 26.2587 22.6645 26.0135 22.6648 25.7578V20.1133C22.6645 19.8576 22.5628 19.6123 22.382 19.4315C22.2012 19.2506 21.956 19.1489 21.7002 19.1486H14.6271V12.6668C14.6274 12.4034 14.7322 12.1508 14.9185 11.9645C15.1048 11.7783 15.3574 11.6735 15.6209 11.6732H21.9909V14.6742C21.9914 15.1164 22.1672 15.5403 22.4799 15.853C22.7925 16.1656 23.2164 16.3415 23.6585 16.342H26.6595V27.3326C26.6592 27.596 26.5544 27.8486 26.3681 28.0348C26.1818 28.2211 25.9292 28.3259 25.6658 28.3262Z" stroke="#0C8CE9" strokeWidth="0.201153"/>
<path d="M14.9924 22.9335C14.9924 22.1211 14.3295 21.5474 13.3956 21.5474H12.4014V24.3241H13.3956C14.3295 24.3241 14.9924 23.7461 14.9924 22.9335ZM13.4726 23.7823H12.9955V22.0882H13.4726C13.5881 22.0812 13.7039 22.0979 13.8127 22.1373C13.9215 22.1768 14.0212 22.238 14.1054 22.3174C14.1897 22.3967 14.2569 22.4925 14.3028 22.5987C14.3487 22.705 14.3723 22.8195 14.3723 22.9352C14.3723 23.051 14.3487 23.1655 14.3028 23.2718C14.2569 23.378 14.1897 23.4738 14.1054 23.5531C14.0212 23.6325 13.9215 23.6937 13.8127 23.7331C13.7039 23.7726 13.5881 23.7893 13.4726 23.7823Z" stroke="#0C8CE9" strokeWidth="0.201153"/>
<path d="M16.8608 24.3727C17.1432 24.3652 17.4172 24.2746 17.6485 24.1123C17.8798 23.9499 18.0581 23.723 18.1611 23.4599C18.2641 23.1968 18.2873 22.9091 18.2277 22.6329C18.1681 22.3567 18.0285 22.1041 17.8262 21.9068C17.6239 21.7096 17.3679 21.5763 17.0903 21.5237C16.8127 21.471 16.5257 21.5014 16.2652 21.611C16.0048 21.7206 15.7824 21.9045 15.6259 22.1398C15.4694 22.3751 15.3857 22.6513 15.3853 22.9338C15.3944 23.3189 15.5539 23.6852 15.8296 23.9541C16.1054 24.2231 16.4756 24.3733 16.8608 24.3727ZM16.8608 22.0405C17.0394 22.0335 17.2161 22.0802 17.368 22.1744C17.52 22.2686 17.6402 22.4061 17.7134 22.5693C17.7865 22.7324 17.8092 22.9137 17.7785 23.0898C17.7477 23.266 17.665 23.4289 17.5409 23.5576C17.4169 23.6863 17.2571 23.775 17.0822 23.8122C16.9074 23.8494 16.7254 23.8334 16.5596 23.7664C16.3939 23.6993 16.252 23.5842 16.1523 23.4358C16.0525 23.2874 15.9994 23.1126 15.9998 22.9338C15.9998 22.7025 16.0895 22.4802 16.2501 22.3136C16.4107 22.1471 16.6296 22.049 16.8608 22.0405Z" stroke="#0C8CE9" strokeWidth="0.201153"/>
<path d="M20.184 24.373C20.3858 24.3721 20.5855 24.3305 20.771 24.2507C20.9564 24.1709 21.1239 24.0546 21.2634 23.9086L20.8308 23.5207C20.7516 23.6159 20.6528 23.6929 20.5412 23.7466C20.4296 23.8002 20.3078 23.8293 20.184 23.8318C19.953 23.8222 19.7346 23.7237 19.5745 23.5569C19.4145 23.3901 19.3251 23.1678 19.3251 22.9366C19.3251 22.7054 19.4145 22.4832 19.5745 22.3163C19.7346 22.1495 19.953 22.051 20.184 22.0414C20.3077 22.044 20.4295 22.0731 20.5411 22.1268C20.6527 22.1805 20.7515 22.2574 20.8308 22.3525L21.2634 21.9642C21.1032 21.7795 20.8989 21.6381 20.6696 21.5531C20.4403 21.4681 20.1932 21.4423 19.9513 21.4781C19.7094 21.5138 19.4803 21.6099 19.2854 21.7575C19.0904 21.9052 18.9358 22.0995 18.8357 22.3227C18.7357 22.5459 18.6936 22.7907 18.7132 23.0345C18.7328 23.2782 18.8135 23.5131 18.9478 23.7175C19.0822 23.9218 19.2659 24.089 19.4819 24.2036C19.698 24.3182 19.9394 24.3764 20.184 24.373Z" stroke="#0C8CE9" strokeWidth="0.201153"/>
</mask>
<g mask="url(#mask0_82_37431)">
<path d="M27.327 15.9406V15.9389C27.3209 15.9107 27.3112 15.8834 27.2981 15.8577C27.2947 15.8509 27.2912 15.8444 27.2873 15.8384C27.2731 15.8125 27.2554 15.7886 27.2348 15.7674L22.5662 11.0988C22.5449 11.078 22.5209 11.0602 22.4948 11.0458C22.4884 11.0424 22.4823 11.0389 22.4755 11.0358C22.4296 11.0127 22.379 11.0004 22.3277 11H15.6209C15.1788 11.0005 14.7549 11.1763 14.4423 11.4889C14.1297 11.8015 13.9538 12.2253 13.9532 12.6674V19.1486H11.9645C11.7088 19.1489 11.4636 19.2506 11.2828 19.4315C11.1019 19.6123 11.0003 19.8576 11 20.1133V25.7578C11.0003 26.0135 11.1019 26.2587 11.2828 26.4396C11.4636 26.6204 11.7088 26.7222 11.9645 26.7225H13.9532V27.3324C13.9538 27.7745 14.1296 28.1984 14.4422 28.511C14.7549 28.8236 15.1787 28.9995 15.6209 29H25.6658C26.1079 28.9995 26.5317 28.8236 26.8444 28.511C27.157 28.1984 27.3328 27.7745 27.3334 27.3324V16.0049C27.3333 15.9833 27.3312 15.9618 27.327 15.9406ZM26.1831 15.6682H23.6585C23.3951 15.668 23.1424 15.5632 22.9561 15.3769C22.7698 15.1905 22.665 14.9379 22.6648 14.6744V12.1497L26.1831 15.6682ZM11.6738 25.7578V20.1133C11.6739 20.0362 11.7046 19.9623 11.7591 19.9078C11.8136 19.8533 11.8874 19.8226 11.9645 19.8224H21.7002C21.7773 19.8226 21.8512 19.8533 21.9057 19.9078C21.9602 19.9623 21.9908 20.0362 21.9909 20.1133V25.7578C21.9908 25.8349 21.9602 25.9088 21.9057 25.9633C21.8512 26.0178 21.7773 26.0485 21.7002 26.0487H11.9645C11.8874 26.0485 11.8136 26.0178 11.7591 25.9633C11.7046 25.9088 11.6739 25.8349 11.6738 25.7578ZM25.6658 28.3262H15.6209C15.3574 28.3259 15.1047 28.2211 14.9184 28.0348C14.7321 27.8485 14.6273 27.5959 14.6271 27.3324V26.7225H21.7002C21.956 26.7222 22.2012 26.6204 22.382 26.4396C22.5628 26.2587 22.6645 26.0135 22.6648 25.7578V20.1133C22.6645 19.8576 22.5628 19.6123 22.382 19.4315C22.2012 19.2506 21.956 19.1489 21.7002 19.1486H14.6271V12.6668C14.6274 12.4034 14.7322 12.1508 14.9185 11.9645C15.1048 11.7783 15.3574 11.6735 15.6209 11.6732H21.9909V14.6742C21.9914 15.1164 22.1672 15.5403 22.4799 15.853C22.7925 16.1656 23.2164 16.3415 23.6585 16.342H26.6595V27.3326C26.6592 27.596 26.5544 27.8486 26.3681 28.0348C26.1818 28.2211 25.9292 28.3259 25.6658 28.3262Z" stroke="#0C8CE9" strokeWidth="0.201153"/>
</g>
<path d="M14.2687 24.2998L13.7297 22.8508V24.2998H13.1312V21.7868H13.9117L14.5452 23.4913L15.1752 21.7868H15.9557V24.2998H15.3572V22.8333L14.8147 24.2998H14.2687ZM17.4267 23.5333H17.1082V24.2998H16.4467V21.7868H17.4267C18.0847 21.7868 18.4802 22.0808 18.4802 22.6443C18.4802 23.2113 18.0847 23.5333 17.4267 23.5333ZM17.4232 22.3433H17.1082V22.9768H17.4232C17.6857 22.9768 17.8222 22.8438 17.8222 22.6513C17.8222 22.4553 17.6857 22.3433 17.4232 22.3433ZM20.6493 23.8798H20.3098V24.2998H19.7113V23.8798H18.5983V23.4283L19.8198 21.9338H20.3098V23.3548H20.6493V23.8798ZM19.2493 23.3548H19.7113V22.7738L19.2493 23.3548Z" fill="#0C8CE9"/>
<path d="M14.2687 24.2998L14.175 24.3347L14.1992 24.3998H14.2687V24.2998ZM13.7297 22.8508L13.8235 22.8159L13.6297 22.8508H13.7297ZM13.7297 24.2998V24.3998H13.8297V24.2998H13.7297ZM13.1312 24.2998H13.0312V24.3998H13.1312V24.2998ZM13.1312 21.7868V21.6868H13.0312V21.7868H13.1312ZM13.9117 21.7868L14.0055 21.752L13.9812 21.6868H13.9117V21.7868ZM14.5452 23.4913L14.4515 23.5261L14.5455 23.779L14.639 23.526L14.5452 23.4913ZM15.1752 21.7868V21.6868H15.1056L15.0814 21.7521L15.1752 21.7868ZM15.9557 21.7868H16.0557V21.6868H15.9557V21.7868ZM15.9557 24.2998V24.3998H16.0557V24.2998H15.9557ZM15.3572 24.2998H15.2572V24.3998H15.3572V24.2998ZM15.3572 22.8333H15.4572L15.2634 22.7986L15.3572 22.8333ZM14.8147 24.2998V24.3998H14.8844L14.9085 24.3345L14.8147 24.2998ZM14.3625 24.2649L13.8235 22.8159L13.636 22.8857L14.175 24.3347L14.3625 24.2649ZM13.6297 22.8508V24.2998H13.8297V22.8508H13.6297ZM13.7297 24.1998H13.1312V24.3998H13.7297V24.1998ZM13.2312 24.2998V21.7868H13.0312V24.2998H13.2312ZM13.1312 21.8868H13.9117V21.6868H13.1312V21.8868ZM13.818 21.8216L14.4515 23.5261L14.639 23.4565L14.0055 21.752L13.818 21.8216ZM14.639 23.526L15.269 21.8215L15.0814 21.7521L14.4514 23.4566L14.639 23.526ZM15.1752 21.8868H15.9557V21.6868H15.1752V21.8868ZM15.8557 21.7868V24.2998H16.0557V21.7868H15.8557ZM15.9557 24.1998H15.3572V24.3998H15.9557V24.1998ZM15.4572 24.2998V22.8333H15.2572V24.2998H15.4572ZM15.2634 22.7986L14.7209 24.2651L14.9085 24.3345L15.451 22.868L15.2634 22.7986ZM14.8147 24.1998H14.2687V24.3998H14.8147V24.1998ZM17.1082 23.5333V23.4333H17.0082V23.5333H17.1082ZM17.1082 24.2998V24.3998H17.2082V24.2998H17.1082ZM16.4467 24.2998H16.3467V24.3998H16.4467V24.2998ZM16.4467 21.7868V21.6868H16.3467V21.7868H16.4467ZM17.1082 22.3433V22.2433H17.0082V22.3433H17.1082ZM17.1082 22.9768H17.0082V23.0768H17.1082V22.9768ZM17.4267 23.4333H17.1082V23.6333H17.4267V23.4333ZM17.0082 23.5333V24.2998H17.2082V23.5333H17.0082ZM17.1082 24.1998H16.4467V24.3998H17.1082V24.1998ZM16.5467 24.2998V21.7868H16.3467V24.2998H16.5467ZM16.4467 21.8868H17.4267V21.6868H16.4467V21.8868ZM17.4267 21.8868C17.7426 21.8868 17.9808 21.9576 18.1379 22.0825C18.2916 22.2046 18.3802 22.3881 18.3802 22.6443H18.5802C18.5802 22.337 18.471 22.0917 18.2624 21.926C18.0573 21.763 17.7687 21.6868 17.4267 21.6868V21.8868ZM18.3802 22.6443C18.3802 22.9028 18.2911 23.0951 18.136 23.2247C17.9785 23.3564 17.7407 23.4333 17.4267 23.4333V23.6333C17.7706 23.6333 18.0596 23.5492 18.2643 23.3782C18.4715 23.205 18.5802 22.9528 18.5802 22.6443H18.3802ZM17.4232 22.2433H17.1082V22.4433H17.4232V22.2433ZM17.0082 22.3433V22.9768H17.2082V22.3433H17.0082ZM17.1082 23.0768H17.4232V22.8768H17.1082V23.0768ZM17.4232 23.0768C17.5703 23.0768 17.6958 23.0395 17.7861 22.9622C17.8782 22.8833 17.9222 22.7726 17.9222 22.6513H17.7222C17.7222 22.7225 17.6978 22.7745 17.6561 22.8103C17.6125 22.8476 17.5385 22.8768 17.4232 22.8768V23.0768ZM17.9222 22.6513C17.9222 22.528 17.8779 22.4197 17.7828 22.3451C17.6916 22.2736 17.5666 22.2433 17.4232 22.2433V22.4433C17.5423 22.4433 17.6167 22.469 17.6594 22.5025C17.6982 22.5329 17.7222 22.5786 17.7222 22.6513H17.9222ZM20.6493 23.8798V23.9798H20.7493V23.8798H20.6493ZM20.3098 23.8798V23.7798H20.2098V23.8798H20.3098ZM20.3098 24.2998V24.3998H20.4098V24.2998H20.3098ZM19.7113 24.2998H19.6113V24.3998H19.7113V24.2998ZM19.7113 23.8798H19.8113V23.7798H19.7113V23.8798ZM18.5983 23.8798H18.4983V23.9798H18.5983V23.8798ZM18.5983 23.4283L18.5209 23.365L18.4983 23.3926V23.4283H18.5983ZM19.8198 21.9338V21.8338H19.7724L19.7424 21.8705L19.8198 21.9338ZM20.3098 21.9338H20.4098V21.8338H20.3098V21.9338ZM20.3098 23.3548H20.2098V23.4548H20.3098V23.3548ZM20.6493 23.3548H20.7493V23.2548H20.6493V23.3548ZM19.2493 23.3548L19.171 23.2926L19.042 23.4548H19.2493V23.3548ZM19.7113 23.3548V23.4548H19.8113V23.3548H19.7113ZM19.7113 22.7738H19.8113V22.4874L19.633 22.7116L19.7113 22.7738ZM20.6493 23.7798H20.3098V23.9798H20.6493V23.7798ZM20.2098 23.8798V24.2998H20.4098V23.8798H20.2098ZM20.3098 24.1998H19.7113V24.3998H20.3098V24.1998ZM19.8113 24.2998V23.8798H19.6113V24.2998H19.8113ZM19.7113 23.7798H18.5983V23.9798H19.7113V23.7798ZM18.6983 23.8798V23.4283H18.4983V23.8798H18.6983ZM18.6757 23.4916L19.8972 21.9971L19.7424 21.8705L18.5209 23.365L18.6757 23.4916ZM19.8198 22.0338H20.3098V21.8338H19.8198V22.0338ZM20.2098 21.9338V23.3548H20.4098V21.9338H20.2098ZM20.3098 23.4548H20.6493V23.2548H20.3098V23.4548ZM20.5493 23.3548V23.8798H20.7493V23.3548H20.5493ZM19.2493 23.4548H19.7113V23.2548H19.2493V23.4548ZM19.8113 23.3548V22.7738H19.6113V23.3548H19.8113ZM19.633 22.7116L19.171 23.2926L19.3276 23.417L19.7896 22.836L19.633 22.7116Z" fill="#145788"/>
</g>
<defs>
<clipPath id="clip0_82_37431">
<rect width="40" height="40" fill="white"/>
</clipPath>
</defs>
</svg>
