<svg width="40" height="40" viewBox="0 0 40 40" fill="none" xmlns="http://www.w3.org/2000/svg">
<rect width="40" height="40" rx="4" fill="#7379FF" fill-opacity="0.05"/>
<mask id="path-2-outside-1_1330_579" maskUnits="userSpaceOnUse" x="10" y="9.08105" width="20" height="21" fill="black">
<rect fill="white" x="10" y="9.08105" width="20" height="21"/>
<path d="M28.993 15.5258V15.5239C28.9863 15.4928 28.9756 15.4627 28.9612 15.4344C28.9576 15.427 28.9536 15.4197 28.9493 15.4132C28.9336 15.3846 28.9141 15.3583 28.8914 15.3349L23.7464 10.1899C23.7229 10.167 23.6963 10.1473 23.6675 10.1315C23.6607 10.1275 23.6539 10.1239 23.6463 10.1205C23.5956 10.095 23.5398 10.0815 23.4831 10.0811H16.0924C15.6053 10.0816 15.1383 10.2753 14.7938 10.6196C14.4493 10.964 14.2554 11.4309 14.2546 11.918V19.0611H12.0629C11.7811 19.0615 11.5109 19.1736 11.3116 19.3729C11.1124 19.5722 11.0003 19.8424 11 20.1243V26.3447C11.0003 26.6266 11.1124 26.8968 11.3116 27.0961C11.5109 27.2954 11.7811 27.4076 12.0629 27.4079H14.2546V28.08C14.2552 28.5673 14.449 29.0344 14.7935 29.3789C15.138 29.7234 15.6051 29.9172 16.0924 29.9178H27.1623C27.6495 29.9172 28.1166 29.7234 28.4611 29.3789C28.8057 29.0344 28.9995 28.5673 29 28.08V15.5967C29 15.5729 28.9976 15.5492 28.993 15.5258ZM27.7323 15.2256H24.9502C24.6599 15.2253 24.3815 15.1099 24.1761 14.9045C23.9708 14.6992 23.8553 14.4208 23.855 14.1304V11.3481L27.7323 15.2256ZM11.7426 26.3447V20.1243C11.7427 20.0393 11.7765 19.9579 11.8365 19.8978C11.8966 19.8377 11.978 19.8039 12.0629 19.8037H22.7921C22.8771 19.8039 22.9585 19.8377 23.0185 19.8978C23.0786 19.9579 23.1124 20.0393 23.1125 20.1243V26.3447C23.1124 26.4297 23.0786 26.5111 23.0185 26.5712C22.9585 26.6313 22.8771 26.6651 22.7921 26.6653H12.0629C11.978 26.6651 11.8966 26.6313 11.8365 26.5712C11.7765 26.5111 11.7427 26.4297 11.7426 26.3447ZM27.1623 29.1752H16.0924C15.802 29.1749 15.5236 29.0595 15.3183 28.8541C15.1129 28.6488 14.9975 28.3704 14.9972 28.08V27.4079H22.7921C23.0739 27.4076 23.3441 27.2954 23.5434 27.0961C23.7427 26.8968 23.8548 26.6266 23.855 26.3447V20.1243C23.8548 19.8424 23.7427 19.5722 23.5434 19.3729C23.3441 19.1736 23.0739 19.0615 22.7921 19.0611H14.9972V11.918C14.9975 11.6276 15.113 11.3493 15.3183 11.144C15.5237 10.9387 15.802 10.8233 16.0924 10.823H23.1125V14.1302C23.113 14.6175 23.3068 15.0847 23.6513 15.4292C23.9958 15.7738 24.463 15.9676 24.9502 15.9682H28.2575V28.0802C28.2571 28.3706 28.1415 28.6489 27.9362 28.8541C27.7309 29.0594 27.4526 29.1749 27.1623 29.1752Z"/>
<path d="M15.3912 22.7382C15.3912 22.1324 14.9011 21.7047 14.2374 21.7047H12.8609V24.7652H13.5159V23.7716H14.2372C14.9011 23.7716 15.3912 23.3441 15.3912 22.7382ZM14.1655 23.1704H13.5159V22.3062H14.1655C14.4908 22.3062 14.7133 22.4759 14.7133 22.7382C14.7133 23.0004 14.4914 23.1704 14.1655 23.1704Z"/>
<path d="M18.9063 23.2324C18.9063 22.337 18.1759 21.7048 17.1469 21.7048H16.051V24.7648H17.1469C18.1754 24.7648 18.9063 24.1277 18.9063 23.2324ZM16.7058 22.3014H17.2315C17.3591 22.2932 17.4871 22.3113 17.6074 22.3545C17.7278 22.3978 17.838 22.4652 17.9312 22.5527C18.0245 22.6402 18.0988 22.7458 18.1496 22.8632C18.2005 22.9805 18.2267 23.107 18.2267 23.2349C18.2267 23.3628 18.2005 23.4893 18.1496 23.6067C18.0988 23.724 18.0245 23.8297 17.9312 23.9172C17.838 24.0047 17.7278 24.0721 17.6074 24.1153C17.4871 24.1585 17.3591 24.1766 17.2315 24.1684H16.7058V22.3014Z"/>
<path d="M20.2969 23.5535H21.8338V22.961H20.2969V22.2973H21.9942V21.7047H19.6377V24.7652H20.2969V23.5535Z"/>
</mask>
<path d="M28.993 15.5258V15.5239C28.9863 15.4928 28.9756 15.4627 28.9612 15.4344C28.9576 15.427 28.9536 15.4197 28.9493 15.4132C28.9336 15.3846 28.9141 15.3583 28.8914 15.3349L23.7464 10.1899C23.7229 10.167 23.6963 10.1473 23.6675 10.1315C23.6607 10.1275 23.6539 10.1239 23.6463 10.1205C23.5956 10.095 23.5398 10.0815 23.4831 10.0811H16.0924C15.6053 10.0816 15.1383 10.2753 14.7938 10.6196C14.4493 10.964 14.2554 11.4309 14.2546 11.918V19.0611H12.0629C11.7811 19.0615 11.5109 19.1736 11.3116 19.3729C11.1124 19.5722 11.0003 19.8424 11 20.1243V26.3447C11.0003 26.6266 11.1124 26.8968 11.3116 27.0961C11.5109 27.2954 11.7811 27.4076 12.0629 27.4079H14.2546V28.08C14.2552 28.5673 14.449 29.0344 14.7935 29.3789C15.138 29.7234 15.6051 29.9172 16.0924 29.9178H27.1623C27.6495 29.9172 28.1166 29.7234 28.4611 29.3789C28.8057 29.0344 28.9995 28.5673 29 28.08V15.5967C29 15.5729 28.9976 15.5492 28.993 15.5258ZM27.7323 15.2256H24.9502C24.6599 15.2253 24.3815 15.1099 24.1761 14.9045C23.9708 14.6992 23.8553 14.4208 23.855 14.1304V11.3481L27.7323 15.2256ZM11.7426 26.3447V20.1243C11.7427 20.0393 11.7765 19.9579 11.8365 19.8978C11.8966 19.8377 11.978 19.8039 12.0629 19.8037H22.7921C22.8771 19.8039 22.9585 19.8377 23.0185 19.8978C23.0786 19.9579 23.1124 20.0393 23.1125 20.1243V26.3447C23.1124 26.4297 23.0786 26.5111 23.0185 26.5712C22.9585 26.6313 22.8771 26.6651 22.7921 26.6653H12.0629C11.978 26.6651 11.8966 26.6313 11.8365 26.5712C11.7765 26.5111 11.7427 26.4297 11.7426 26.3447ZM27.1623 29.1752H16.0924C15.802 29.1749 15.5236 29.0595 15.3183 28.8541C15.1129 28.6488 14.9975 28.3704 14.9972 28.08V27.4079H22.7921C23.0739 27.4076 23.3441 27.2954 23.5434 27.0961C23.7427 26.8968 23.8548 26.6266 23.855 26.3447V20.1243C23.8548 19.8424 23.7427 19.5722 23.5434 19.3729C23.3441 19.1736 23.0739 19.0615 22.7921 19.0611H14.9972V11.918C14.9975 11.6276 15.113 11.3493 15.3183 11.144C15.5237 10.9387 15.802 10.8233 16.0924 10.823H23.1125V14.1302C23.113 14.6175 23.3068 15.0847 23.6513 15.4292C23.9958 15.7738 24.463 15.9676 24.9502 15.9682H28.2575V28.0802C28.2571 28.3706 28.1415 28.6489 27.9362 28.8541C27.7309 29.0594 27.4526 29.1749 27.1623 29.1752Z" fill="#5458AB"/>
<path d="M15.3912 22.7382C15.3912 22.1324 14.9011 21.7047 14.2374 21.7047H12.8609V24.7652H13.5159V23.7716H14.2372C14.9011 23.7716 15.3912 23.3441 15.3912 22.7382ZM14.1655 23.1704H13.5159V22.3062H14.1655C14.4908 22.3062 14.7133 22.4759 14.7133 22.7382C14.7133 23.0004 14.4914 23.1704 14.1655 23.1704Z" fill="#5458AB"/>
<path d="M18.9063 23.2324C18.9063 22.337 18.1759 21.7048 17.1469 21.7048H16.051V24.7648H17.1469C18.1754 24.7648 18.9063 24.1277 18.9063 23.2324ZM16.7058 22.3014H17.2315C17.3591 22.2932 17.4871 22.3113 17.6074 22.3545C17.7278 22.3978 17.838 22.4652 17.9312 22.5527C18.0245 22.6402 18.0988 22.7458 18.1496 22.8632C18.2005 22.9805 18.2267 23.107 18.2267 23.2349C18.2267 23.3628 18.2005 23.4893 18.1496 23.6067C18.0988 23.724 18.0245 23.8297 17.9312 23.9172C17.838 24.0047 17.7278 24.0721 17.6074 24.1153C17.4871 24.1585 17.3591 24.1766 17.2315 24.1684H16.7058V22.3014Z" fill="#5458AB"/>
<path d="M20.2969 23.5535H21.8338V22.961H20.2969V22.2973H21.9942V21.7047H19.6377V24.7652H20.2969V23.5535Z" fill="#5458AB"/>
<path d="M28.993 15.5258V15.5239C28.9863 15.4928 28.9756 15.4627 28.9612 15.4344C28.9576 15.427 28.9536 15.4197 28.9493 15.4132C28.9336 15.3846 28.9141 15.3583 28.8914 15.3349L23.7464 10.1899C23.7229 10.167 23.6963 10.1473 23.6675 10.1315C23.6607 10.1275 23.6539 10.1239 23.6463 10.1205C23.5956 10.095 23.5398 10.0815 23.4831 10.0811H16.0924C15.6053 10.0816 15.1383 10.2753 14.7938 10.6196C14.4493 10.964 14.2554 11.4309 14.2546 11.918V19.0611H12.0629C11.7811 19.0615 11.5109 19.1736 11.3116 19.3729C11.1124 19.5722 11.0003 19.8424 11 20.1243V26.3447C11.0003 26.6266 11.1124 26.8968 11.3116 27.0961C11.5109 27.2954 11.7811 27.4076 12.0629 27.4079H14.2546V28.08C14.2552 28.5673 14.449 29.0344 14.7935 29.3789C15.138 29.7234 15.6051 29.9172 16.0924 29.9178H27.1623C27.6495 29.9172 28.1166 29.7234 28.4611 29.3789C28.8057 29.0344 28.9995 28.5673 29 28.08V15.5967C29 15.5729 28.9976 15.5492 28.993 15.5258ZM27.7323 15.2256H24.9502C24.6599 15.2253 24.3815 15.1099 24.1761 14.9045C23.9708 14.6992 23.8553 14.4208 23.855 14.1304V11.3481L27.7323 15.2256ZM11.7426 26.3447V20.1243C11.7427 20.0393 11.7765 19.9579 11.8365 19.8978C11.8966 19.8377 11.978 19.8039 12.0629 19.8037H22.7921C22.8771 19.8039 22.9585 19.8377 23.0185 19.8978C23.0786 19.9579 23.1124 20.0393 23.1125 20.1243V26.3447C23.1124 26.4297 23.0786 26.5111 23.0185 26.5712C22.9585 26.6313 22.8771 26.6651 22.7921 26.6653H12.0629C11.978 26.6651 11.8966 26.6313 11.8365 26.5712C11.7765 26.5111 11.7427 26.4297 11.7426 26.3447ZM27.1623 29.1752H16.0924C15.802 29.1749 15.5236 29.0595 15.3183 28.8541C15.1129 28.6488 14.9975 28.3704 14.9972 28.08V27.4079H22.7921C23.0739 27.4076 23.3441 27.2954 23.5434 27.0961C23.7427 26.8968 23.8548 26.6266 23.855 26.3447V20.1243C23.8548 19.8424 23.7427 19.5722 23.5434 19.3729C23.3441 19.1736 23.0739 19.0615 22.7921 19.0611H14.9972V11.918C14.9975 11.6276 15.113 11.3493 15.3183 11.144C15.5237 10.9387 15.802 10.8233 16.0924 10.823H23.1125V14.1302C23.113 14.6175 23.3068 15.0847 23.6513 15.4292C23.9958 15.7738 24.463 15.9676 24.9502 15.9682H28.2575V28.0802C28.2571 28.3706 28.1415 28.6489 27.9362 28.8541C27.7309 29.0594 27.4526 29.1749 27.1623 29.1752Z" stroke="#5458AB" stroke-width="0.226309" mask="url(#path-2-outside-1_1330_579)"/>
<path d="M15.3912 22.7382C15.3912 22.1324 14.9011 21.7047 14.2374 21.7047H12.8609V24.7652H13.5159V23.7716H14.2372C14.9011 23.7716 15.3912 23.3441 15.3912 22.7382ZM14.1655 23.1704H13.5159V22.3062H14.1655C14.4908 22.3062 14.7133 22.4759 14.7133 22.7382C14.7133 23.0004 14.4914 23.1704 14.1655 23.1704Z" stroke="#5458AB" stroke-width="0.226309" mask="url(#path-2-outside-1_1330_579)"/>
<path d="M18.9063 23.2324C18.9063 22.337 18.1759 21.7048 17.1469 21.7048H16.051V24.7648H17.1469C18.1754 24.7648 18.9063 24.1277 18.9063 23.2324ZM16.7058 22.3014H17.2315C17.3591 22.2932 17.4871 22.3113 17.6074 22.3545C17.7278 22.3978 17.838 22.4652 17.9312 22.5527C18.0245 22.6402 18.0988 22.7458 18.1496 22.8632C18.2005 22.9805 18.2267 23.107 18.2267 23.2349C18.2267 23.3628 18.2005 23.4893 18.1496 23.6067C18.0988 23.724 18.0245 23.8297 17.9312 23.9172C17.838 24.0047 17.7278 24.0721 17.6074 24.1153C17.4871 24.1585 17.3591 24.1766 17.2315 24.1684H16.7058V22.3014Z" stroke="#5458AB" stroke-width="0.226309" mask="url(#path-2-outside-1_1330_579)"/>
<path d="M20.2969 23.5535H21.8338V22.961H20.2969V22.2973H21.9942V21.7047H19.6377V24.7652H20.2969V23.5535Z" stroke="#5458AB" stroke-width="0.226309" mask="url(#path-2-outside-1_1330_579)"/>
</svg>

