<svg viewBox="0 0 20 20" fill="none" xmlns="http://www.w3.org/2000/svg">
<path d="M16.9998 9.29305V9.99305C16.9928 11.4059 16.5583 12.7835 15.7536 13.9448C14.949 15.1061 13.8117 15.9967 12.4914 16.4995C11.1711 17.0024 9.72952 17.094 8.35619 16.7622C6.98286 16.4304 5.74207 15.6908 4.79694 14.6407C3.8518 13.5905 3.24656 12.279 3.06078 10.8784C2.87501 9.47784 3.11739 8.05384 3.75607 6.7936C4.39475 5.53337 5.39983 4.4959 6.63917 3.81757C7.87852 3.13925 9.29412 2.85183 10.6999 2.99309M7.19987 11.393C7.19987 11.393 8.24986 12.793 9.99985 12.793C11.7498 12.793 12.7998 11.393 12.7998 11.393M7.90027 7.89329H7.90762M12.0995 7.89329H12.1068M12.7999 5.09309H16.9999M14.9003 2.9929V7.19287" stroke="white" strokeOpacity="0.8" strokeWidth="1.2" strokeLinecap="round" strokeLinejoin="round"/>
</svg>
